<svg width="33" height="34" viewBox="0 0 33 34" fill="none" xmlns="http://www.w3.org/2000/svg">
<path d="M32.8825 15.0043C32.6804 13.9754 31.9594 13.1502 31.0372 12.7999C33.3241 8.86881 33.6412 5.1875 31.8116 3.30237C31.009 2.47552 29.8466 2.05216 28.4476 2.07872C28.1807 2.08377 27.9682 2.31083 27.9731 2.58582C27.978 2.85777 28.1935 3.07479 28.4563 3.07479C28.4593 3.07479 28.4624 3.07479 28.4654 3.07472C29.61 3.05288 30.5068 3.36672 31.128 4.0067C32.0886 4.99638 32.1145 6.50007 31.9671 7.58726C31.7587 9.12475 31.0836 10.8586 30.0127 12.6165C27.2246 12.5617 24.4244 12.5238 21.6197 12.5031C21.6015 10.8068 21.4996 9.08977 21.3144 7.39121C21.2891 7.15933 21.111 6.97658 20.8857 6.95159C20.7416 6.93565 20.5972 6.92146 20.4529 6.90671C22.4937 5.12872 24.6754 3.87634 26.6837 3.34248C26.9423 3.27375 27.0977 3.00214 27.031 2.73577C26.9643 2.46941 26.7005 2.30916 26.4422 2.37796C25.6726 2.58257 24.881 2.88433 24.0832 3.27328C24.2385 2.57712 24.3126 1.74257 24.016 1.11985C23.8373 0.744573 23.5415 0.488702 23.1605 0.379859C22.5961 0.21875 21.7193 0.303355 20.7452 1.6219C20.6981 1.68572 20.6525 1.75 20.6087 1.81395C20.6034 1.79503 20.598 1.77617 20.5925 1.75724C20.4011 1.10099 19.9006 0 18.6985 0C18.281 0 17.9171 0.171468 17.6457 0.495808C17.2915 0.919295 17.1366 1.57708 17.081 2.23266C16.6579 1.65942 16.1455 1.19868 15.5911 1.19868C15.231 1.19868 14.9026 1.38768 14.6665 1.73088C14.0445 2.63496 14.0355 4.59429 14.6133 6.64712C14.4686 6.64899 14.3239 6.65235 14.1793 6.65549C13.2322 5.51683 12.0873 4.73322 11.5865 4.41965V3.32787C11.8135 3.2869 11.9861 3.08336 11.9861 2.83778V1.43157C11.9861 0.673717 11.3876 0.0571778 10.6521 0.0571778H7.64602C6.91045 0.0571778 6.31203 0.673717 6.31203 1.43157V2.83778C6.31203 3.08336 6.48471 3.2869 6.71166 3.32787L6.71129 4.41944C6.05859 4.82787 4.31508 6.03164 3.33929 7.77958C3.14025 8.13462 3.04808 8.54381 3.07302 8.96384C3.11982 9.72935 3.23603 11.2176 3.48863 12.6073C3.29069 12.611 3.09255 12.6144 2.89474 12.6183C1.552 12.6444 0.383937 13.6479 0.117478 15.0041C-0.0391487 15.7987 -0.0391487 16.6045 0.117414 17.3987C0.312972 18.3955 0.998328 19.2182 1.90354 19.5814C1.95665 20.5952 2.0476 22.0371 2.19649 23.6758C1.79745 24.8402 1.40659 26.0051 1.02746 27.1676C0.70125 28.169 1.138 29.2803 2.04399 29.753C2.3887 29.9323 2.75113 30.0714 3.12207 30.1681C3.46878 31.181 4.08755 32.0549 4.92599 32.708C5.85181 33.4292 6.95504 33.8104 8.11639 33.8104H24.8837C26.045 33.8104 27.1482 33.4292 28.0741 32.708C28.9126 32.0548 29.5314 31.1809 29.8781 30.1678C30.2508 30.0703 30.6131 29.931 30.9563 29.7523C31.8624 29.2805 32.2993 28.169 31.9725 27.1669C31.5931 26.0037 31.2024 24.8389 30.8036 23.6753C30.9525 22.0367 31.0434 20.5949 31.0966 19.5811C32.0028 19.217 32.6873 18.3948 32.8825 17.3992C33.0391 16.6044 33.0391 15.7986 32.8825 15.0043ZM20.3954 7.90091C20.5501 9.43032 20.6361 10.9723 20.6529 12.4972C17.0673 12.4758 13.4758 12.4819 9.89369 12.516C9.91015 10.9851 9.99619 9.43682 10.1515 7.90083C13.5521 7.55127 16.9945 7.55127 20.3954 7.90091ZM15.4553 2.30691C15.4904 2.25577 15.5426 2.19481 15.5911 2.19481C15.9392 2.19481 16.6692 3.2179 17.1884 4.43304C17.2738 4.64835 17.494 4.77491 17.7184 4.73488C17.95 4.69344 18.1191 4.48638 18.1191 4.24413C18.1191 4.21383 18.1163 4.18348 18.1109 4.1536C17.8693 2.4706 18.1379 1.43323 18.3782 1.14602C18.4661 1.04089 18.5619 0.996062 18.6986 0.996062C19.813 0.996062 19.8503 3.28066 19.8504 3.3031C19.8504 3.53852 20.0105 3.7416 20.234 3.79021C20.4579 3.83889 20.6837 3.71942 20.7761 3.50406C21.1217 2.69858 22.0952 1.10956 22.902 1.33986C23.0169 1.37267 23.0905 1.43815 23.1478 1.55875C23.3535 1.99054 23.2434 2.94556 22.8833 3.92137C21.6048 4.67861 20.3297 5.64727 19.1205 6.78865C17.9571 6.70076 16.7902 6.65282 15.6231 6.64487C14.9495 4.46917 15.1073 2.81267 15.4553 2.30691ZM10.6197 4.20732H7.67823L7.67856 3.33584H10.6198L10.6197 4.20732ZM7.64602 1.05324H10.6521C10.8545 1.05324 11.0192 1.22291 11.0192 1.4315V2.33951H7.27889V1.43157C7.27889 1.22298 7.44356 1.05324 7.64602 1.05324ZM4.4418 12.4397C4.19669 11.0986 4.08356 9.64707 4.03798 8.90217C4.02477 8.67888 4.07266 8.46298 4.17693 8.277C5.09899 6.62528 6.88104 5.47234 7.32385 5.2034H10.974C11.2565 5.37471 12.0856 5.9066 12.8883 6.69923C11.81 6.74959 10.7334 6.83297 9.66129 6.95168C9.43602 6.97658 9.25778 7.15933 9.23253 7.3913C9.04658 9.09772 8.94465 10.8224 8.92708 12.5261C7.44278 12.5423 5.96025 12.563 4.48086 12.5888C4.46498 12.5402 4.4512 12.4906 4.4418 12.4397ZM2.88275 19.7843C2.88681 19.7844 2.8908 19.7848 2.89487 19.7849L2.91034 19.7851C3.1271 19.7893 3.34386 19.793 3.56069 19.797C3.36694 20.3336 3.17454 20.8707 2.9844 21.4087C2.94179 20.8019 2.90853 20.2545 2.88275 19.7843ZM24.8836 32.8142H8.11635C6.40922 32.8142 4.86342 31.7585 4.16988 30.1835C4.80492 30.0204 5.35565 29.5494 5.60843 28.8852C5.88703 28.1536 6.14014 27.4795 6.38228 26.8247C6.47736 26.5676 6.35221 26.2799 6.10269 26.1819C5.85317 26.084 5.57391 26.2129 5.47882 26.47C5.23776 27.1218 4.98572 27.7928 4.70832 28.5215C4.50801 29.048 3.96193 29.3495 3.43687 29.2224C3.10699 29.1432 2.78491 29.0225 2.48016 28.864C1.9999 28.6135 1.76941 28.0204 1.94396 27.4847C3.18337 23.6847 4.53531 19.8577 5.96219 16.1103C6.16283 15.5838 6.70927 15.2821 7.2329 15.4084C7.56603 15.489 7.88815 15.6098 8.19093 15.7679C8.67129 16.0179 8.90158 16.6107 8.72668 17.1469C7.91554 19.6336 7.0521 22.1445 6.16019 24.61C6.06693 24.8677 6.19414 25.1545 6.44432 25.2506C6.6945 25.3467 6.97286 25.2156 7.06612 24.9579C7.6739 23.2776 8.26807 21.5764 8.8421 19.8761C11.384 19.9046 13.9417 19.9192 16.5 19.9192C19.0584 19.9192 21.6164 19.9046 24.1585 19.8761C25.179 22.8991 26.2621 25.9196 27.3914 28.8847C27.6443 29.549 28.1951 30.0199 28.8302 30.1832C28.1368 31.7583 26.5908 32.8142 24.8836 32.8142ZM30.5201 28.8632C30.2162 29.0215 29.8939 29.1423 29.5624 29.2224C29.0386 29.3489 28.4921 29.0473 28.2915 28.5208C26.8676 24.782 25.5156 20.9551 24.2733 17.1463C24.0984 16.6103 24.3288 16.0174 24.8091 15.7673C25.113 15.6091 25.4353 15.4882 25.7669 15.4082C25.8472 15.3888 25.9281 15.3794 26.0082 15.3794C26.4503 15.3794 26.8679 15.664 27.0377 16.1097C28.4617 19.8485 29.8136 23.6754 31.0559 27.4842C31.2308 28.0203 31.0004 28.6131 30.5201 28.8632ZM29.4396 19.797C29.6561 19.793 29.8726 19.7893 30.089 19.7851L30.1063 19.7848C30.11 19.7848 30.1137 19.7843 30.1173 19.7843C30.0915 20.2543 30.0582 20.8015 30.0157 21.4081C29.8255 20.8701 29.6332 20.3332 29.4396 19.797ZM31.9348 17.2013C31.7887 17.9466 31.2312 18.5466 30.5118 18.7305C30.3762 18.7661 30.2328 18.7858 30.087 18.7889L30.071 18.7892C29.7406 18.7956 29.4103 18.8015 29.0798 18.8073C28.7047 17.7819 28.3241 16.7604 27.9377 15.7458C27.563 14.7617 26.5346 14.1996 25.5463 14.4383C25.14 14.5364 24.7452 14.6844 24.373 14.8784C23.4668 15.3502 23.0299 16.4616 23.3567 17.4637C23.511 17.9367 23.667 18.41 23.8246 18.8834C18.96 18.9354 14.0394 18.9354 9.17482 18.8834C9.33248 18.4099 9.48898 17.9366 9.64297 17.4644C9.97008 16.462 9.53312 15.3504 8.62723 14.879C8.25648 14.6855 7.86167 14.5373 7.45354 14.4386C6.46524 14.2001 5.43712 14.7623 5.06203 15.7465C4.67552 16.7615 4.29503 17.7827 3.92023 18.8074C3.58957 18.8016 3.25884 18.7956 2.92819 18.7893L2.91395 18.789C2.76692 18.7858 2.6237 18.7662 2.48525 18.7298C1.76863 18.5466 1.2111 17.9466 1.06484 17.2009C0.934193 16.5379 0.934193 15.8655 1.06491 15.2021C1.24229 14.2995 2.0195 13.6317 2.91304 13.6143C11.9286 13.436 21.0711 13.436 30.0868 13.6143C30.9803 13.6317 31.7575 14.2995 31.9349 15.2024C32.0657 15.8654 32.0657 16.5378 31.9348 17.2013Z" fill="#3BB77E"/>
</svg>
