<svg width="35" height="35" viewBox="0 0 35 35" fill="none" xmlns="http://www.w3.org/2000/svg">
<path d="M13.125 13.1253C14.7358 13.1253 16.0416 11.8195 16.0416 10.2087C16.0416 8.59783 14.7358 7.29199 13.125 7.29199C11.5141 7.29199 10.2083 8.59783 10.2083 10.2087C10.2083 11.8195 11.5141 13.1253 13.125 13.1253Z" stroke="#50BF8B" stroke-width="2" stroke-linecap="round" stroke-linejoin="round"/>
<path d="M10.5 11.5208L4.375 16.0417V29.1667C4.375 30.0417 4.95833 30.625 5.83333 30.625H29.1667C30.0417 30.625 30.625 30.0417 30.625 29.1667V16.0417C30.625 13.125 26.25 7.29167 20.4167 4.375L15.1667 8.16667M23.3333 18.9583H4.375M23.3333 24.7917H4.375" stroke="#50BF8B" stroke-width="2" stroke-linecap="round" stroke-linejoin="round"/>
</svg>
