<svg width="24" height="35" viewBox="0 0 24 35" fill="none" xmlns="http://www.w3.org/2000/svg">
<path d="M13.2529 7.5L13.5505 10H21.0841L20.4591 15H11.6073L11.0259 10H11.0328L10.7352 7.5L10.7317 7.46961L10.0254 1.39578L9.86305 0H0V2.5H7.63695L8.21836 7.5H1.08406L4.24813 32.8101C4.32451 33.4143 4.61851 33.97 5.07507 34.3731C5.53164 34.7762 6.11947 34.9991 6.72851 35H18.2715C18.8806 34.9991 19.4685 34.7763 19.9251 34.3732C20.3817 33.9701 20.6758 33.4144 20.7522 32.8101L23.9159 7.5H13.2529ZM3.91594 10H8.50906L9.09047 15H4.54094L3.91594 10ZM18.2726 32.5H6.72844L4.85344 17.5H9.38117L10.4712 26.875H12.988L11.8979 17.5H20.1469L18.2726 32.5Z" fill="#50BF8B"/>
</svg>
