<svg width="35" height="35" viewBox="0 0 35 35" fill="none" xmlns="http://www.w3.org/2000/svg">
<path d="M19.8625 12.2239L22.7296 9.35535C22.3904 9.01625 22.14 8.59873 22.0007 8.13978C21.8614 7.68082 21.8374 7.19459 21.9309 6.72416C22.0244 6.25373 22.2325 5.81361 22.5367 5.44279C22.8409 5.07196 23.2318 4.78188 23.6749 4.59824C24.118 4.4146 24.5995 4.34305 25.0769 4.38995C25.5542 4.43685 26.0126 4.60075 26.4115 4.86712C26.8103 5.13348 27.1373 5.49411 27.3636 5.91704C27.5898 6.33998 27.7082 6.81218 27.7083 7.29181C28.1881 7.29147 28.6605 7.40947 29.0837 7.63537C29.507 7.86127 29.868 8.18809 30.1347 8.58685C30.4014 8.98562 30.5657 9.44403 30.6129 9.92146C30.6601 10.3989 30.5888 10.8806 30.4054 11.3239C30.2219 11.7672 29.9319 12.1583 29.5611 12.4628C29.1903 12.7672 28.7501 12.9754 28.2796 13.0691C27.8091 13.1627 27.3227 13.1388 26.8636 12.9995C26.4045 12.8602 25.9869 12.6098 25.6477 12.2706L22.9935 14.9262M10.9375 23.3335L12.3958 24.7918M8.60998 27.1193C12.5956 31.1064 17.2142 32.9526 18.9204 31.2449C20.6296 29.5358 18.7833 24.9187 14.7962 20.9331C10.8106 16.946 6.19207 15.0997 4.48582 16.8074C2.77665 18.5166 4.6229 23.1337 8.60998 27.1193Z" stroke="#50BF8B" stroke-width="2" stroke-linecap="round" stroke-linejoin="round"/>
<path d="M18.9219 31.2449C24.6167 25.5486 26.0021 17.6999 22.015 13.7142C18.0294 9.72716 10.1806 11.1126 4.48584 16.8074" stroke="#50BF8B" stroke-width="2" stroke-linecap="round" stroke-linejoin="round"/>
</svg>
