<svg width="35" height="35" viewBox="0 0 35 35" fill="none" xmlns="http://www.w3.org/2000/svg">
<path d="M10.2083 30.625H24.7917M17.5 30.625C20.981 30.625 24.3194 29.2422 26.7808 26.7808C29.2422 24.3194 30.625 20.981 30.625 17.5H4.375C4.375 20.981 5.75781 24.3194 8.21922 26.7808C10.6806 29.2422 14.019 30.625 17.5 30.625Z" stroke="#50BF8B" stroke-width="2" stroke-linecap="round" stroke-linejoin="round"/>
<path d="M16.5959 17.4997C15.7126 17.508 14.859 17.182 14.2061 16.5871C13.5531 15.9922 13.1493 15.1725 13.0755 14.2924C13.0017 13.4122 13.2634 12.5367 13.8081 11.8414C14.3528 11.1461 15.1403 10.6825 16.0125 10.5435C15.8729 9.92548 15.9036 9.28116 16.1014 8.67925C16.2992 8.07734 16.6567 7.54041 17.1358 7.12574C17.6148 6.71108 18.1974 6.43422 18.8215 6.3247C19.4455 6.21519 20.0876 6.27712 20.6792 6.5039C20.9382 6.09609 21.2789 5.74634 21.6798 5.47665C22.0806 5.20696 22.5329 5.02317 23.0083 4.93687C23.4837 4.85057 23.9717 4.86361 24.4418 4.97518C24.9119 5.08675 25.3537 5.29443 25.7396 5.58515C26.4127 5.0561 27.2564 4.79211 28.111 4.84314C28.9656 4.89417 29.7719 5.25666 30.3773 5.86204C30.9827 6.46743 31.3452 7.2737 31.3962 8.12832C31.4472 8.98294 31.1832 9.82662 30.6542 10.4997C30.9835 10.9371 31.2056 11.4457 31.3026 11.9845C31.3996 12.5233 31.3689 13.0774 31.2129 13.6022C31.0569 14.127 30.7799 14.6079 30.4043 15.0062C30.0286 15.4045 29.5648 15.7091 29.05 15.8956C29.1836 16.4204 29.1985 16.9684 29.0938 17.4997M18.9584 17.4997L24.7917 11.6664" stroke="#50BF8B" stroke-width="2" stroke-linecap="round" stroke-linejoin="round"/>
<path d="M15.8958 10.5722C15.0959 9.71946 14.0577 9.12748 12.9164 8.87342C11.7752 8.61935 10.5838 8.71499 9.49773 9.14786C8.41162 9.58073 7.4811 10.3308 6.82747 11.3002C6.17383 12.2696 5.8274 13.4134 5.83333 14.5826C5.83333 15.6472 6.12499 16.6389 6.62083 17.4993" stroke="#50BF8B" stroke-width="2" stroke-linecap="round" stroke-linejoin="round"/>
</svg>
