<svg width="35" height="26" viewBox="0 0 35 26" fill="none" xmlns="http://www.w3.org/2000/svg">
<path d="M32.2603 0H35V2.5808L28.9176 11.6964C28.7694 16.224 25.0725 19.8403 20.5268 19.8587H15.9518C11.3141 19.8587 7.55442 16.0991 7.55442 11.4613V11.4425V11.4435V3.04771H16.4998C19.2248 3.04771 21.8246 2.51177 24.1996 1.53956L24.0639 1.5887C26.4897 0.583857 29.3068 0.00020264 32.2602 0H32.2603ZM33.3789 1.62112H32.2335C29.5093 1.62112 26.9104 2.15703 24.5363 3.12927L24.6718 3.08013C22.2482 4.08213 19.434 4.66396 16.4839 4.66396H9.17549V11.4564C9.17549 15.1989 12.2093 18.2327 15.9518 18.2327H20.5233C24.2641 18.2144 27.2905 15.1822 27.2996 11.4411V11.1938L33.3788 2.08314L33.3789 1.62112ZM4.60398 0C7.14669 0 9.20797 2.06128 9.20797 4.60398C9.20797 7.14669 7.14669 9.20797 4.60398 9.20797C2.06128 9.20797 0 7.14669 0 4.60398C0.0027863 2.06237 2.06237 0.0027863 4.60373 0H4.60398ZM4.60398 7.58685C6.25137 7.58685 7.58685 6.25137 7.58685 4.60398C7.58685 2.9566 6.25137 1.62112 4.60398 1.62112C2.9566 1.62112 1.62112 2.9566 1.62112 4.60398C1.62297 6.25064 2.95733 7.585 4.60381 7.58685H4.60398ZM12.468 18.2376H24.1028L27.9643 25.9379H8.60815L12.468 18.2376ZM23.1026 19.8587H13.4715L11.2344 24.3168H25.3381L23.1026 19.8587Z" fill="#50BF8B"/>
</svg>
