<svg width="35" height="35" viewBox="0 0 35 35" fill="none" xmlns="http://www.w3.org/2000/svg">
<path d="M17.5 5.83301C17.0384 6.1643 16.6645 6.60297 16.4104 7.11113C16.1563 7.61929 16.0298 8.18166 16.0417 8.74967C16.0298 9.31769 16.1563 9.88006 16.4104 10.3882C16.6645 10.8964 17.0384 11.3351 17.5 11.6663M23.3333 5.83301C22.8718 6.1643 22.4978 6.60297 22.2437 7.11113C21.9897 7.61929 21.8631 8.18166 21.875 8.74967C21.8631 9.31769 21.9897 9.88006 22.2437 10.3882C22.4978 10.8964 22.8718 11.3351 23.3333 11.6663M11.6667 5.83301C11.2051 6.1643 10.8312 6.60297 10.5771 7.11113C10.323 7.61929 10.1964 8.18166 10.2083 8.74967C10.1964 9.31769 10.323 9.88006 10.5771 10.3882C10.8312 10.8964 11.2051 11.3351 11.6667 11.6663M5.83333 16.0413H29.1667C29.5534 16.0413 29.9244 16.195 30.1979 16.4685C30.4714 16.742 30.625 17.1129 30.625 17.4997V18.2288C30.625 20.4163 26.9544 26.3561 24.7917 27.708V29.1663C24.7917 29.5531 24.638 29.924 24.3645 30.1975C24.091 30.471 23.7201 30.6247 23.3333 30.6247H11.6667C11.2799 30.6247 10.909 30.471 10.6355 30.1975C10.362 29.924 10.2083 29.5531 10.2083 29.1663V27.708C7.74813 26.1709 4.375 20.4163 4.375 18.2288V17.4997C4.375 17.1129 4.52865 16.742 4.80214 16.4685C5.07563 16.195 5.44656 16.0413 5.83333 16.0413Z" stroke="#50BF8B" stroke-width="2" stroke-linecap="round" stroke-linejoin="round"/>
</svg>
