<svg width="36" height="36" viewBox="0 0 36 36" fill="none" xmlns="http://www.w3.org/2000/svg">
<g id="icons">
<path id="Vector" d="M18 31.708H18.0003C19.7316 31.7089 21.3584 31.376 22.8857 30.7112C24.4225 30.0422 25.7616 29.1351 26.9069 27.9899C28.0511 26.8456 28.9578 25.507 29.6268 23.9701C30.2916 22.4428 30.625 20.8155 30.625 19.083C30.625 17.6309 30.391 16.2408 29.924 14.91C29.4559 13.5758 28.7765 12.3214 27.8832 11.146L27.6191 10.7985L27.9277 10.4899L29.6158 8.80176L28.2812 7.4672L26.5931 9.15531L26.2845 9.46392L25.937 9.19984C24.7616 8.30654 23.5073 7.62713 22.173 7.15897C20.8423 6.69205 19.4522 6.45804 18.0003 6.45801C16.2687 6.45894 14.6416 6.7924 13.1141 7.45635C11.5773 8.12435 10.2384 9.03092 9.09314 10.1761C7.94887 11.3204 7.04225 12.659 6.37324 14.1959C5.70847 15.7231 5.37503 17.3504 5.375 19.0827L18 31.708ZM18 31.708C16.2675 31.708 14.64 31.375 13.1127 30.7111C11.576 30.0432 10.2376 29.1362 9.09343 27.9902L9.09314 27.9899M18 31.708L9.09314 27.9899M9.09314 27.9899C7.94791 26.8446 7.04134 25.5057 6.37334 23.9689M9.09314 27.9899L6.37334 23.9689M6.37334 23.9689C5.70943 22.4415 5.37597 20.8145 5.375 19.083L6.37334 23.9689ZM12.9133 31.1697C11.3208 30.4775 9.92958 29.5354 8.73958 28.3434L18 32.208C16.2014 32.208 14.5058 31.8619 12.9133 31.1697ZM14.125 3.99967V2.08301H21.875V3.99967H14.125ZM18.9583 12.2913V20.0413H17.0417V12.2913H18.9583ZM18 29.7913C20.952 29.7913 23.4855 28.7422 25.5723 26.6553C27.6592 24.5685 28.7083 22.035 28.7083 19.083C28.7083 16.131 27.6592 13.5976 25.5723 11.5107C23.4855 9.42385 20.952 8.37467 18 8.37467C15.048 8.37467 12.5146 9.42385 10.4277 11.5107C8.34084 13.5976 7.29167 16.131 7.29167 19.083C7.29167 22.035 8.34084 24.5685 10.4277 26.6553C12.5146 28.7422 15.048 29.7913 18 29.7913Z" fill="#50BF8B" stroke="#50BF8B"/>
</g>
</svg>
