<svg width="35" height="36" viewBox="0 0 35 36" fill="none" xmlns="http://www.w3.org/2000/svg">
<g id="icons">
<path id="Vector" d="M17.5 14.7083C18.1703 14.7083 18.834 14.5763 19.4533 14.3198C20.0725 14.0633 20.6352 13.6873 21.1092 13.2134C21.5832 12.7394 21.9591 12.1767 22.2156 11.5574C22.4721 10.9382 22.6042 10.2745 22.6042 9.60417C22.6042 8.93388 22.4721 8.27015 22.2156 7.65089C21.9591 7.03162 21.5832 6.46894 21.1092 5.99498C20.6352 5.52101 20.0725 5.14504 19.4533 4.88853C18.834 4.63202 18.1703 4.5 17.5 4.5C16.1463 4.5 14.848 5.03776 13.8908 5.99498C12.9336 6.95219 12.3958 8.25046 12.3958 9.60417C12.3958 10.9579 12.9336 12.2561 13.8908 13.2134C14.848 14.1706 16.1463 14.7083 17.5 14.7083ZM4.375 29.875V30.75H30.625V29.875C30.625 26.6083 30.625 24.975 29.9892 23.7267C29.4299 22.6291 28.5376 21.7368 27.44 21.1775C26.1917 20.5417 24.5583 20.5417 21.2917 20.5417H13.7083C10.4417 20.5417 8.80833 20.5417 7.56 21.1775C6.46244 21.7368 5.57009 22.6291 5.01083 23.7267C4.375 24.975 4.375 26.6083 4.375 29.875Z" fill="#50BF8B" stroke="#50BF8B" stroke-width="4" stroke-linecap="round" stroke-linejoin="round"/>
</g>
</svg>
