<svg width="36" height="36" viewBox="0 0 36 36" fill="none" xmlns="http://www.w3.org/2000/svg">
<g id="icons">
<path id="Vector" d="M23.8334 21.5H25.2917H25.7917V22V29.2767L25.8 29.4163C25.8316 29.6537 25.9509 29.871 26.1349 30.0249C26.3222 30.1817 26.5623 30.261 26.8062 30.2467C27.05 30.2324 27.2792 30.1255 27.4468 29.9479C27.6145 29.7703 27.7081 29.5354 27.7083 29.2911V5.97327L27.7 5.83344C27.67 5.60525 27.5588 5.39531 27.3866 5.24219C27.2112 5.08622 26.9847 5.00005 26.75 5L23.8334 21.5ZM23.8334 21.5C23.8334 21.5 23.8333 21.5 23.8333 21.5C23.5986 21.5 23.3721 21.4138 23.1967 21.2578C23.0245 21.1047 22.9134 20.8948 22.8834 20.6666M23.8334 21.5L22.8834 20.6666M22.8834 20.6666L22.875 20.5267V11.7917C22.875 10.2795 23.3926 8.542 24.1751 7.18734C24.5653 6.51197 25.0092 5.95295 25.4656 5.56853C25.9245 5.18207 26.361 5.00002 26.7499 5L22.8834 20.6666ZM14.5833 18.8996V18.5124L14.9581 18.4155C16.103 18.1194 17.1171 17.4514 17.8412 16.5165C18.5652 15.5815 18.9582 14.4325 18.9583 13.25C18.9583 13.25 18.9583 13.25 18.9583 13.2499V5.97327L18.95 5.83343C18.92 5.60525 18.8088 5.39531 18.6366 5.24219C18.4612 5.08622 18.2347 5.00005 18 5L14.5833 18.8996ZM14.5833 18.8996L14.5833 29.2911C14.5833 29.2912 14.5833 29.2914 14.5833 29.2915C14.583 29.5356 14.4894 29.7704 14.3218 29.9479C14.1542 30.1255 13.925 30.2324 13.6812 30.2467C13.4373 30.261 13.1972 30.1817 13.0099 30.0249C12.8259 29.871 12.7066 29.6537 12.675 29.4163L12.6667 29.2767V18.8996V18.5124L12.2918 18.4155C11.1924 18.1313 10.2122 17.5037 9.49402 16.6241C8.77721 15.7462 8.35856 14.6629 8.29863 13.5313L8.29166 13.2439V5.95865C8.29199 5.71447 8.38551 5.47963 8.55314 5.30208C8.72081 5.12446 8.94999 5.01758 9.19383 5.00326C9.43767 4.98895 9.67777 5.06828 9.86508 5.22506L10.1774 4.85196L9.86508 5.22506C10.049 5.37902 10.1684 5.59626 10.2 5.83373L10.2083 5.97328V13.25C10.2083 13.8497 10.3662 14.4389 10.6661 14.9583C10.966 15.4777 11.3973 15.909 11.9167 16.2088L12.6667 16.6419V15.7758L12.6667 5.95889M14.5833 18.8996L12.6667 5.95889M12.6667 5.95889C12.6667 5.95877 12.6667 5.95864 12.6667 5.95852C12.667 5.71439 12.7605 5.4796 12.9281 5.30208C13.0958 5.12446 13.325 5.01758 13.5688 5.00326C13.8127 4.98895 14.0528 5.06828 14.2401 5.22506C14.424 5.37902 14.5434 5.59626 14.575 5.83374M12.6667 5.95889L14.575 5.83374M14.575 5.83374L14.5833 5.97331L14.5848 15.7759L14.5849 16.6423L15.335 16.2087C15.8117 15.9332 16.2148 15.5464 16.5099 15.0815C16.8049 14.6166 16.9833 14.0873 17.0297 13.5386L17.0306 13.5279L17.031 13.5172L17.0412 13.2707L17.0417 13.2604V13.25V5.95833C17.0417 5.70417 17.1426 5.46041 17.3223 5.28069C17.5021 5.10098 17.7458 5.00002 17.9999 5L14.575 5.83374Z" fill="#50BF8B" stroke="#50BF8B"/>
</g>
</svg>
